<?xml version="1.0" encoding="UTF-8" standalone="no"?>
<!DOCTYPE svg PUBLIC "-//W3C//DTD SVG 1.1//EN" "http://www.w3.org/Graphics/SVG/1.1/DTD/svg11.dtd">
<svg width="100%" height="100%" viewBox="0 0 800 800" version="1.1" xmlns="http://www.w3.org/2000/svg" xmlns:xlink="http://www.w3.org/1999/xlink" xml:space="preserve" xmlns:serif="http://www.serif.com/" style="fill-rule:evenodd;clip-rule:evenodd;">
    <g transform="matrix(33.3333,0,0,33.3333,0,0)">
        <path d="M6.887,5.172C7.465,4.594 7.754,4.304 8.122,4.152C8.49,4 8.898,4 9.716,4L14.326,4C15.152,4 15.565,4 15.935,4.155C16.306,4.31 16.595,4.604 17.175,5.192L18.849,6.891C19.417,7.467 19.701,7.756 19.851,8.12C20,8.485 20,8.889 20,9.699L20,14.343C20,15.161 20,15.569 19.848,15.937C19.696,16.305 19.407,16.594 18.828,17.172L17.172,18.828C16.594,19.407 16.305,19.696 15.937,19.848C15.569,20 15.161,20 14.343,20L9.699,20C8.889,20 8.485,20 8.12,19.851C7.756,19.701 7.467,19.417 6.891,18.849L5.192,17.175C4.604,16.595 4.31,16.306 4.155,15.935C4,15.565 4,15.152 4,14.326L4,9.716C4,8.898 4,8.49 4.152,8.122C4.304,7.754 4.594,7.465 5.172,6.887L6.887,5.172Z" style="fill:rgb(100,65,165);fill-opacity:0.24;fill-rule:nonzero;stroke:rgb(34,34,34);stroke-width:1.2px;"/>
    </g>
    <g transform="matrix(33.3333,0,0,33.3333,0,0)">
        <path d="M8,11L8.422,11.211C10.675,12.337 13.326,12.337 15.578,11.211L16,11" style="fill:none;fill-rule:nonzero;stroke:rgb(0,173,238);stroke-width:1.2px;stroke-linecap:round;"/>
    </g>
    <g transform="matrix(33.3333,0,0,33.3333,0,0)">
        <path d="M12,12.5L12,14" style="fill:none;fill-rule:nonzero;stroke:rgb(0,173,238);stroke-width:1.2px;stroke-linecap:round;"/>
    </g>
    <g transform="matrix(33.3333,0,0,33.3333,0,0)">
        <path d="M9,12L8.5,13" style="fill:none;fill-rule:nonzero;stroke:rgb(0,173,238);stroke-width:1.2px;stroke-linecap:round;"/>
    </g>
    <g transform="matrix(33.3333,0,0,33.3333,0,0)">
        <path d="M15,12L15.5,13" style="fill:none;fill-rule:nonzero;stroke:rgb(0,173,238);stroke-width:1.2px;stroke-linecap:round;"/>
    </g>
</svg>
